<svg width="81" height="76" viewBox="0 0 81 76" fill="none" xmlns="http://www.w3.org/2000/svg">
<g clip-path="url(#clip0_1_2)">
<path d="M4.97218 61.5157L74.9722 61.5157" stroke="#467390" stroke-opacity="0.5" stroke-width="8" stroke-linecap="round"/>
<path d="M14 61.5157L73 61.5157" stroke="#467391" stroke-width="8" stroke-linecap="round"/>
<path d="M16.0184 52.9381C20.9889 52.92 25.033 56.9348 25.0511 61.9053C25.0692 66.8758 21.0545 70.9199 16.084 70.938C11.1135 70.9561 7.06935 66.9414 7.05123 61.9709C7.03311 57.0004 11.0478 52.9563 16.0184 52.9381Z" fill="#467391"/>
<path d="M16.0329 57.9345C18.2421 57.9264 20.0394 59.7107 20.0475 61.9199C20.0555 64.129 18.2712 65.9264 16.0621 65.9344C13.853 65.9425 12.0556 64.1582 12.0475 61.949C12.0395 59.7399 13.8238 57.9425 16.0329 57.9345Z" fill="#FFF5F2"/>
<path d="M76.1768 71.7366L40.784 9.92402" stroke="#F19F23" stroke-opacity="0.5" stroke-width="8" stroke-linecap="round"/>
<path d="M71.6123 63.7647L41.7812 11.6655" stroke="#F19F23" stroke-width="8" stroke-linecap="round"/>
<path d="M63.1476 66.2436C60.6187 61.8634 62.0582 56.2979 66.3629 53.8126C70.6675 51.3273 76.2071 52.8634 78.736 57.2436C81.2649 61.6237 79.8254 67.1892 75.5208 69.6745C71.2161 72.1598 65.6765 70.6237 63.1476 66.2436Z" fill="#F19F23"/>
<path d="M67.4764 63.7486C66.3524 61.8019 66.9922 59.3283 68.9054 58.2237C70.8186 57.1191 73.2806 57.8019 74.4046 59.7486C75.5285 61.6953 74.8887 64.1689 72.9756 65.2735C71.0624 66.378 68.6003 65.6953 67.4764 63.7486Z" fill="#FFF5F2"/>
<path d="M49.7504 4.61895L13.9156 66.1763" stroke="#999999" stroke-opacity="0.5" stroke-width="8" stroke-linecap="round"/>
<path d="M45.1289 12.5579L14.9252 64.442" stroke="#A0A0A0" stroke-width="8" stroke-linecap="round"/>
<path d="M51.508 18.6491C48.9791 23.0293 43.4394 24.5654 39.1348 22.0801C34.8302 19.5948 33.3906 14.0293 35.9195 9.64914C38.4484 5.26898 43.9881 3.73288 48.2927 6.21816C52.5973 8.70344 54.0369 14.269 51.508 18.6491Z" fill="#A0A0A0"/>
<path d="M47.1829 16.1478C46.0589 18.0945 43.5968 18.7772 41.6837 17.6726C39.7705 16.5681 39.1307 14.0945 40.2547 12.1478C41.3786 10.201 43.8407 9.51831 45.7539 10.6229C47.667 11.7274 48.3068 14.201 47.1829 16.1478Z" fill="#FFF5F2"/>
<path d="M15.9999 53.0308C20.9705 53.0138 25.0155 57.0294 25.0349 61.9999C25.0542 66.9705 21.0404 71.0136 16.0699 71.0306C11.0993 71.0476 7.05428 67.032 7.03497 62.0615C7.01566 57.091 11.0294 53.0478 15.9999 53.0308Z" fill="#467390"/>
<path d="M16.3689 58.0137C18.578 58.0061 20.3758 59.7908 20.3844 62C20.393 64.2091 18.6091 66.0061 16.4 66.0136C14.1909 66.0212 12.393 64.2365 12.3845 62.0273C12.3759 59.8182 14.1598 58.0212 16.3689 58.0137Z" fill="#FFF5F2"/>
</g>
<defs>
<clipPath id="clip0_1_2">
<rect width="81" height="76" fill="white"/>
</clipPath>
</defs>
</svg>
